<svg width="35" height="30" viewBox="0 0 35 30" fill="none" xmlns="http://www.w3.org/2000/svg">
<path d="M30.0591 13.5375C28.9739 12.4107 27.48 11.6274 25.8154 11.3125C25.4362 9.8625 24.78 8.6125 23.8175 7.575C23.7883 7.5375 23.7591 7.5 23.73 7.475C20.5216 4.15 15.2716 4.1625 11.7279 5.8875C8.69456 7.375 6.11331 10.5125 7.46956 14.9875C4.36331 15.6375 2.93414 17.9625 2.93414 20.0625C2.93414 22.4125 4.72789 25.05 8.72373 25.3H23.8612C25.9321 25.3 27.9154 24.6375 29.4466 23.4375C33.1071 20.6625 32.6258 16.1375 30.0591 13.5375ZM31.7333 10.9275C31.7333 11.3525 31.675 11.765 31.5291 12.165C30.4706 11.1164 29.1217 10.3126 27.6062 9.8275C27.1435 8.55716 26.4119 7.37071 25.4479 6.3275C25.725 6.2775 26.0166 6.265 26.2937 6.265C27.7364 6.265 29.12 6.75622 30.1401 7.63061C31.1602 8.505 31.7333 9.69093 31.7333 10.9275Z" fill="white"/>
</svg>
